#!OML:ASF F:\VICON\USERDATA\INSTALL\rory3\rory3.ASF
:FULLY-SPECIFIED
:DEGREES
1558
root 5.50234 17.5065 0.851167 18.6673 1.25193 0.652698
lowerback -7.46395 -1.52507 7.74009
upperback -13.5278 -2.0686 1.07358
thorax -10.6685 -1.76254 -3.09031
lowerneck -4.14625 19.6022 11.038
upperneck 8.46227 25.4976 0.102577
head 4.51737 12.9142 0.0558095
rclavicle 1.13307e-014 -1.19271e-014
rhumerus -9.32492 -28.8792 28.8675
rradius 113.278
rwrist -62.231
rhand -4.25712 -41.4304
rfingers 7.12502
rthumb 21.507 -70.2564
lclavicle 1.13307e-014 -1.19271e-014
lhumerus 24.7058 28.3794 -13.0062
lradius 32.1472
lwrist 55.4869
lhand -19.6844 -12.5563
lfingers 7.12502
lthumb 6.64448 17.3195
rfemur -14.4479 9.69985 -8.94508
rtibia 12.6046
rfoot -8.42391 -24.1675
rtoes 32.1369
lfemur -19.5283 2.6564 -30.438
ltibia 16.1088
lfoot -14.4226 3.2164
ltoes 9.13676
1559
root 5.50442 17.5023 0.861323 18.3022 0.903444 0.655106
lowerback -7.27585 -1.44374 7.68924
upperback -13.3599 -1.95124 1.05644
thorax -10.5613 -1.69244 -3.08404
lowerneck -4.37268 19.6562 10.9257
upperneck 8.65846 25.5349 0.279705
head 4.57863 12.9381 0.150548
rclavicle 1.5704e-014 1.82882e-014
rhumerus -9.34019 -28.9104 28.8871
rradius 113.286
rwrist -62.115
rhand -4.415 -41.6131
rfingers 7.12502
rthumb 21.3554 -70.4563
lclavicle 1.5704e-014 1.82882e-014
lhumerus 24.8703 28.7512 -12.6917
lradius 32.0004
lwrist 55.0061
lhand -19.3855 -12.528
lfingers 7.12502
lthumb 6.93304 17.3385
rfemur -14.2423 9.91839 -8.97793
rtibia 12.6312
rfoot -8.28747 -23.9819
rtoes 32.3654
lfemur -19.106 2.8368 -30.4933
ltibia 16.1011
lfoot -14.5036 3.4657
ltoes 9.09877
1560
root 5.50595 17.5003 0.868804 18.0589 0.653968 0.651623
lowerback -7.19807 -1.3794 7.65669
upperback -13.2363 -1.86498 1.03727
thorax -10.4481 -1.64093 -3.09124
lowerneck -4.12489 19.6215 11.0523
upperneck 8.41608 25.5334 0.0134481
head 4.51455 12.9274 0.0301857
rclavicle -1.05356e-014 1.59028e-014
rhumerus -9.34126 -28.9592 28.8753
rradius 113.288
rwrist -62.2106
rhand -4.43537 -41.9707
rfingers 7.12502
rthumb 21.3358 -70.8161
lclavicle -1.05356e-014 1.59028e-014
lhumerus 24.9651 28.9385 -12.5397
lradius 31.9315
lwrist 54.7541
lhand -19.4341 -12.5396
lfingers 7.12502
lthumb 6.8861 17.3285
rfemur -14.1444 10.104 -9.00666
rtibia 12.6839
rfoot -8.22876 -23.843
rtoes 32.5938
lfemur -18.8123 2.91423 -30.5179
ltibia 16.1144
lfoot -14.6187 3.66989
ltoes 9.07952
1561
root 5.50166 17.5048 0.845435 18.5398 1.13265 0.802061
lowerback -7.43703 -1.53215 7.50478
upperback -13.4318 -2.07995 1.05058
thorax -10.5537 -1.73991 -2.98807
lowerneck -3.87204 19.5667 11.199
upperneck 8.21838 25.5048 -0.250388
head 4.46479 12.9052 -0.0912505
rclavicle -3.43897e-014 3.18055e-015
rhumerus -9.35266 -28.921 28.8783
rradius 113.308
rwrist -62.2366
rhand -4.55876 -42.1732
rfingers 7.12502
rthumb 21.2173 -71.032
lclavicle -3.43897e-014 3.18055e-015
lhumerus 24.9654 28.8532 -12.5778
lradius 31.9553
lwrist 54.851
lhand -19.2843 -12.444
lfingers 7.12502
lthumb 7.03075 17.4193
rfemur -14.4575 9.72518 -9.11239
rtibia 12.7665
rfoot -8.60834 -23.9315
rtoes 32.7791
lfemur -19.3788 2.60621 -30.5948
ltibia 16.1429
lfoot -14.5282 3.30522
ltoes 9.30436
1562
root 5.49857 17.5057 0.834279 18.7371 1.31262 0.83407
lowerback -7.50112 -1.5893 7.4563
upperback -13.5339 -2.15531 1.07563
thorax -10.6414 -1.77593 -2.93055
lowerneck -3.79523 19.5725 11.1788
upperneck 8.23989 25.5196 -0.201173
head 4.45166 12.9158 -0.0822243
rclavicle 3.69739e-014 -4.77083e-015
rhumerus -9.34686 -28.8492 28.9053
rradius 113.334
rwrist -62.1737
rhand -4.36229 -42.0331
rfingers 7.12502
rthumb 21.406 -70.8706
lclavicle 3.69739e-014 -4.77083e-015
lhumerus 24.9534 28.7008 -12.5999
lradius 31.9738
lwrist 54.9734
lhand -19.3131 -12.6767
lfingers 7.12502
lthumb 7.00292 17.1875
rfemur -14.6374 9.56841 -9.12595
rtibia 12.8591
rfoot -8.78227 -23.9015
rtoes 32.9977
lfemur -19.6406 2.49851 -30.5921
ltibia 16.1901
lfoot -14.4763 3.16206
ltoes 9.49263
